<?xml version="1.0" standalone="no"?><!DOCTYPE svg PUBLIC "-//W3C//DTD SVG 1.1//EN" "http://www.w3.org/Graphics/SVG/1.1/DTD/svg11.dtd"><svg t="1710142831919" class="icon" viewBox="0 0 1024 1024" version="1.1" xmlns="http://www.w3.org/2000/svg" p-id="947" xmlns:xlink="http://www.w3.org/1999/xlink" width="200" height="200"><path d="M495.7696 853.9648H254.464a51.2 51.2 0 0 1-51.2-51.2V220.16a51.2 51.2 0 0 1 51.2-51.2h488.2432a51.2 51.2 0 0 1 51.2 51.2v266.24a30.72 30.72 0 0 0 61.44 0V220.16a112.64 112.64 0 0 0-112.64-112.64H254.464a112.64 112.64 0 0 0-112.64 112.64v582.6048a112.64 112.64 0 0 0 112.64 112.64h241.3056a30.72 30.72 0 1 0 0-61.44z" fill="#3396EC" p-id="948"></path><path d="M590.7456 326.656a30.72 30.72 0 0 0-30.72-30.72H321.28a30.72 30.72 0 0 0 0 61.44h238.7456a30.72 30.72 0 0 0 30.72-30.72zM525.1584 489.5232a30.72 30.72 0 0 0-30.72-30.72H321.28a30.72 30.72 0 0 0 0 61.44h173.1584a30.72 30.72 0 0 0 30.72-30.72zM321.28 621.6704a30.72 30.72 0 0 0 0 61.44h108.3392a30.72 30.72 0 1 0 0-61.44zM879.0016 871.2704l-69.12-70.3488a179.7632 179.7632 0 1 0-45.7728 40.96l71.0656 72.3456a30.72 30.72 0 0 0 21.9136 9.216 30.72 30.72 0 0 0 21.9136-52.2752z m-328.192-181.504a118.1696 118.1696 0 1 1 118.1696 118.1696 118.272 118.272 0 0 1-118.1696-118.1696z" fill="#3396EC" p-id="949"></path></svg>