<svg t="1710311914034" class="icon" viewBox="0 0 1024 1024" version="1.1" xmlns="http://www.w3.org/2000/svg" p-id="2637" width="200" height="200"><path d="M512.8 101.2C283.7 101.2 98 286.1 98 514.2s185.7 413 414.8 413c229.1 0 414.8-184.9 414.8-413s-185.7-413-414.8-413z m0 768.6c-197.2 0-357.1-159.2-357.1-355.6 0-196.4 159.9-355.5 357.1-355.5 197.2 0 357.1 159.2 357.1 355.5-0.1 196.4-159.9 355.6-357.1 355.6z" fill="#515151" p-id="2638"></path><path d="M536.5 728c0 5.5-4.5 10-10 10l-28.5 0.1c-5.5 0-10-4.5-10-10l1.1-427.7c0-5.5 4.5-10 10-10l28.5-0.1c5.5 0 10 4.5 10 10L536.5 728z" fill="#515151" p-id="2639"></path><path d="M726.4 487.1c5.5 0 10 4.5 10 10l0.1 35.4c0 5.5-4.5 10-10 10l-427.4-1.3c-5.5 0-10-4.5-10-10l-0.1-35.4c0-5.5 4.5-10 10-10l427.4 1.3z" fill="#515151" p-id="2640"></path></svg>